/vscmnt/brussel_pixiu_data/_data_brussel/112/vsc11236/PredSimResults/SUBJ04opt3D/weighted-expIG/worker_04.mot
version=1
nRows=8
nColumns=50
inDegrees=yes
endheader
                time	         pelvis_tilt	         pelvis_list	     pelvis_rotation	           pelvis_tx	           pelvis_ty	           pelvis_tz	       hip_flexion_r	     hip_adduction_r	      hip_rotation_r	        knee_angle_r	       ankle_angle_r	         mtp_angle_r	       hip_flexion_l	     hip_adduction_l	      hip_rotation_l	        knee_angle_l	       ankle_angle_l	         mtp_angle_l	    lumbar_extension	      lumbar_bending	     lumbar_rotation	 ercspn_r/activation	 intobl_r/activation	 extobl_r/activation	    abd_r/activation	    add_r/activation	hamstrings_r/activation	bifemsh_r/activation	glut_max_r/activation	iliopsoas_r/activation	rect_fem_r/activation	  vasti_r/activation	gastroc_r/activation	 soleus_r/activation	tib_ant_r/activation	 ercspn_l/activation	 intobl_l/activation	 extobl_l/activation	    abd_l/activation	    add_l/activation	hamstrings_l/activation	bifemsh_l/activation	glut_max_l/activation	iliopsoas_l/activation	rect_fem_l/activation	  vasti_l/activation	gastroc_l/activation	 soleus_l/activation	tib_ant_l/activation	
          1.32596628	         -1.65495111	          0.32763892	          7.32712597	          1.19336965	          0.88116850	         -0.00887235	         28.54612834	         -2.30914373	         -7.99928039	        -11.28967159	          4.10750314	          0.23755184	        -12.86719905	         -0.09367594	         -7.22255817	         -7.46688782	         13.92332738	         19.88478652	        -13.61984678	         -3.56315014	         -8.43201489	          0.04777658	          0.22392637	          0.01800488	          0.00999999	          0.36394931	          0.06722781	          0.03055690	          0.01406054	          0.15981976	          0.03313459	          0.04416025	          0.00999999	          0.01444235	          0.32874565	          0.02971452	          0.00999999	          0.00999999	          0.06617311	          0.00999999	          0.02599752	          0.32238201	          0.01570850	          0.02222562	          0.00999999	          0.00999999	          0.28891023	          0.27606949	          0.00999999	
          1.33922594	         -1.74229612	          0.27632604	          7.07766425	          1.20911891	          0.87882141	         -0.00845662	         28.52586765	         -2.11366060	         -7.94354560	        -12.87587060	          3.92685511	          0.22404032	        -13.49165229	         -0.23889709	         -7.90588092	         -8.17628186	         13.74359357	         21.37601095	        -13.07996065	         -2.84879792	         -8.50950012	          0.03912923	          0.22137500	          0.01474608	          0.00999999	          0.29807615	          0.07474191	          0.02502624	          0.03876202	          0.13089312	          0.02713738	          0.03616745	          0.01220993	          0.01490826	          0.35190618	          0.03157995	          0.00999999	          0.00999999	          0.05419608	          0.00999999	          0.03684785	          0.27114461	          0.01286534	          0.01820288	          0.00999999	          0.00999999	          0.27128330	          0.27649994	          0.00999999	
          1.35248560	         -1.81447298	          0.15284601	          6.78622764	          1.22518409	          0.87670668	         -0.00795282	         28.40208954	         -1.86739683	         -7.94424227	        -14.27233152	          3.52018051	          0.21576368	        -14.01588574	         -0.47360728	         -8.63052836	         -9.12664339	         13.47350032	         22.93899473	        -12.51433332	         -2.03572113	         -8.55026138	          0.03204702	          0.18130714	          0.01207711	          0.01858069	          0.24412574	          0.08329241	          0.02049661	          0.03174627	          0.10720206	          0.02222564	          0.10196344	          0.00999999	          0.01220993	          0.38137123	          0.02873237	          0.00999999	          0.00999999	          0.04438684	          0.00999999	          0.03017856	          0.22206868	          0.01053677	          0.01490825	          0.00999999	          0.00999999	          0.22218227	          0.26707426	          0.00999999	
          1.36574527	         -1.87213960	         -0.02742051	          6.45303815	          1.24142705	          0.87499964	         -0.00733418	         28.18513564	         -1.57646655	         -8.08841510	        -15.51118708	          3.08495324	          0.19410589	        -14.39395862	         -0.79092709	         -9.39545929	        -10.37999076	         13.06371891	         24.56648158	        -11.94581837	         -1.14812911	         -8.55001581	          0.02624666	          0.14849138	          0.00999999	          0.03430788	          0.21005106	          0.08460832	          0.01678682	          0.02600034	          0.08779898	          0.01820290	          0.18235612	          0.00999999	          0.00999999	          0.40701015	          0.03964593	          0.00999999	          0.00999999	          0.03635303	          0.00999999	          0.05297410	          0.18187527	          0.01017368	          0.01220992	          0.00999999	          0.00999999	          0.18196830	          0.25222887	          0.00999999	
          1.37900493	         -1.91584500	         -0.25835992	          6.08964517	          1.25773593	          0.87388220	         -0.00659528	         27.84338541	         -1.24418767	         -8.36860641	        -16.58872130	          2.85399155	          0.16963226	        -14.57999873	         -1.19831348	        -10.19184826	        -11.99333326	         12.44742563	         26.26652066	        -11.39020292	         -0.20065096	         -8.51077464	          0.02594959	          0.12161512	          0.00999999	          0.07079929	          0.18817883	          0.08308977	          0.01374848	          0.02129440	          0.07190777	          0.01490826	          0.23734953	          0.00999999	          0.00999999	          0.41344702	          0.06983939	          0.00999999	          0.00999999	          0.02977330	          0.00999999	          0.05565914	          0.14895668	          0.01421032	          0.00999999	          0.00999999	          0.00999999	          0.14903287	          0.21186634	          0.00999999	
          1.39226459	         -1.94699868	         -0.53000444	          5.70752838	          1.27394288	          0.87352864	         -0.00573151	         27.37565702	         -0.86833585	         -8.71904924	        -17.49698948	          2.86524850	          0.14908021	        -14.51683417	         -1.70183044	        -11.01908885	        -14.03650991	         11.56971248	         28.01769613	        -10.86658317	          0.78755769	         -8.43744494	          0.02814242	          0.09960334	          0.00999999	          0.09734939	          0.17058695	          0.08337535	          0.01126007	          0.01744021	          0.05889279	          0.01220993	          0.25868460	          0.00999999	          0.00999999	          0.40434630	          0.09300682	          0.00999999	          0.00999999	          0.02438447	          0.00999999	          0.08350394	          0.12199620	          0.02213355	          0.00999999	          0.00999999	          0.00999999	          0.12205861	          0.17351951	          0.00999999	
          1.40552425	         -1.96658703	         -0.82457024	          5.31880923	          1.28990406	          0.87398918	         -0.00475052	         26.79894925	         -0.45383149	         -9.06115261	        -18.24652630	          3.10122621	          0.14436467	        -14.16294431	         -2.29959409	        -11.87352651	        -16.55451931	         10.38774672	         29.78021015	        -10.39017245	          1.79104549	         -8.33579111	          0.02970741	          0.08157560	          0.00999999	          0.11436091	          0.17648846	          0.08538498	          0.00999999	          0.01428361	          0.04823347	          0.00999999	          0.27780505	          0.00999999	          0.00999999	          0.37250894	          0.08816896	          0.00999999	          0.00999999	          0.01997099	          0.11511700	          0.10057342	          0.09991545	          0.01812748	          0.00999999	          0.00999999	          0.00999999	          0.09996656	          0.14211327	          0.00999999	
          1.41878392	         -1.97562965	         -1.11179496	          4.93307713	          1.30551052	          0.87522117	         -0.00367572	         26.10931452	         -0.01589027	         -9.31665564	        -18.80538049	          3.50687249	          0.19093587	        -13.49437951	         -2.97534430	        -12.73673249	        -19.56188466	          8.87357696	         31.46041096	         -9.97351454	          2.77430149	         -8.20830962	          0.02862632	          0.06681079	          0.00999999	          0.12311867	          0.17451438	          0.08865408	          0.00999999	          0.01401715	          0.03950343	          0.00999999	          0.28026659	          0.00999999	          0.00999999	          0.33638264	          0.08174526	          0.00999999	          0.00999999	          0.01635633	          0.18516996	          0.11640048	          0.08183121	          0.01484649	          0.00999999	          0.00999999	          0.00999999	          0.08187307	          0.11639142	          0.00999999	
